TITLE ""
FILE "1Q_t_0488-0500.mp3" MP3
  TRACK 01 AUDIO
    TITLE "1Q_t_0488-0500_01"
    INDEX 01 00:00:00
  TRACK 02 AUDIO
    TITLE "1Q_t_0488-0500_02"
    INDEX 01 00:01:27
  TRACK 03 AUDIO
    TITLE "1Q_t_0488-0500_03"
    INDEX 01 00:01:41
  TRACK 04 AUDIO
    TITLE "1Q_t_0488-0500_04"
    INDEX 01 00:04:61
  TRACK 05 AUDIO
    TITLE "1Q_t_0488-0500_05"
    INDEX 01 00:05:04
  TRACK 06 AUDIO
    TITLE "1Q_t_0488-0500_06"
    INDEX 01 00:10:38
  TRACK 07 AUDIO
    TITLE "1Q_t_0488-0500_07"
    INDEX 01 00:11:18
  TRACK 08 AUDIO
    TITLE "1Q_t_0488-0500_08"
    INDEX 01 00:12:31
  TRACK 09 AUDIO
    TITLE "1Q_t_0488-0500_09"
    INDEX 01 00:12:47
  TRACK 10 AUDIO
    TITLE "1Q_t_0488-0500_10"
    INDEX 01 00:15:04
  TRACK 11 AUDIO
    TITLE "1Q_t_0488-0500_11"
    INDEX 01 00:15:18
  TRACK 12 AUDIO
    TITLE "1Q_t_0488-0500_12"
    INDEX 01 00:20:74
  TRACK 13 AUDIO
    TITLE "1Q_t_0488-0500_13"
    INDEX 01 00:21:52
  TRACK 14 AUDIO
    TITLE "1Q_t_0488-0500_14"
    INDEX 01 00:23:09
  TRACK 15 AUDIO
    TITLE "1Q_t_0488-0500_15"
    INDEX 01 00:23:27
  TRACK 16 AUDIO
    TITLE "1Q_t_0488-0500_16"
    INDEX 01 00:24:73
  TRACK 17 AUDIO
    TITLE "1Q_t_0488-0500_17"
    INDEX 01 00:25:12
  TRACK 18 AUDIO
    TITLE "1Q_t_0488-0500_18"
    INDEX 01 00:31:11
  TRACK 19 AUDIO
    TITLE "1Q_t_0488-0500_19"
    INDEX 01 00:31:64
  TRACK 20 AUDIO
    TITLE "1Q_t_0488-0500_20"
    INDEX 01 00:32:73
  TRACK 21 AUDIO
    TITLE "1Q_t_0488-0500_21"
    INDEX 01 00:33:16
  TRACK 22 AUDIO
    TITLE "1Q_t_0488-0500_22"
    INDEX 01 00:35:65
  TRACK 23 AUDIO
    TITLE "1Q_t_0488-0500_23"
    INDEX 01 00:36:04
  TRACK 24 AUDIO
    TITLE "1Q_t_0488-0500_24"
    INDEX 01 00:42:50
  TRACK 25 AUDIO
    TITLE "1Q_t_0488-0500_25"
    INDEX 01 00:43:28
  TRACK 26 AUDIO
    TITLE "1Q_t_0488-0500_26"
    INDEX 01 00:44:53
  TRACK 27 AUDIO
    TITLE "1Q_t_0488-0500_27"
    INDEX 01 00:44:68
  TRACK 28 AUDIO
    TITLE "1Q_t_0488-0500_28"
    INDEX 01 00:47:29
  TRACK 29 AUDIO
    TITLE "1Q_t_0488-0500_29"
    INDEX 01 00:47:43
  TRACK 30 AUDIO
    TITLE "1Q_t_0488-0500_30"
    INDEX 01 00:56:07
  TRACK 31 AUDIO
    TITLE "1Q_t_0488-0500_31"
    INDEX 01 00:56:60
  TRACK 32 AUDIO
    TITLE "1Q_t_0488-0500_32"
    INDEX 01 00:58:14
  TRACK 33 AUDIO
    TITLE "1Q_t_0488-0500_33"
    INDEX 01 00:58:31
  TRACK 34 AUDIO
    TITLE "1Q_t_0488-0500_34"
    INDEX 01 00:59:62
  TRACK 35 AUDIO
    TITLE "1Q_t_0488-0500_35"
    INDEX 01 01:00:03
  TRACK 36 AUDIO
    TITLE "1Q_t_0488-0500_36"
    INDEX 01 01:03:62
  TRACK 37 AUDIO
    TITLE "1Q_t_0488-0500_37"
    INDEX 01 01:04:40
  TRACK 38 AUDIO
    TITLE "1Q_t_0488-0500_38"
    INDEX 01 01:05:59
  TRACK 39 AUDIO
    TITLE "1Q_t_0488-0500_39"
    INDEX 01 01:05:72
  TRACK 40 AUDIO
    TITLE "1Q_t_0488-0500_40"
    INDEX 01 01:08:59
  TRACK 41 AUDIO
    TITLE "1Q_t_0488-0500_41"
    INDEX 01 01:08:73
  TRACK 42 AUDIO
    TITLE "1Q_t_0488-0500_42"
    INDEX 01 01:13:60
  TRACK 43 AUDIO
    TITLE "1Q_t_0488-0500_43"
    INDEX 01 01:14:40
  TRACK 44 AUDIO
    TITLE "1Q_t_0488-0500_44"
    INDEX 01 01:15:67
  TRACK 45 AUDIO
    TITLE "1Q_t_0488-0500_45"
    INDEX 01 01:16:10
  TRACK 46 AUDIO
    TITLE "1Q_t_0488-0500_46"
    INDEX 01 01:17:64
  TRACK 47 AUDIO
    TITLE "1Q_t_0488-0500_47"
    INDEX 01 01:18:06
  TRACK 48 AUDIO
    TITLE "1Q_t_0488-0500_48"
    INDEX 01 01:24:33
  TRACK 49 AUDIO
    TITLE "1Q_t_0488-0500_49"
    INDEX 01 01:25:10
  TRACK 50 AUDIO
    TITLE "1Q_t_0488-0500_50"
    INDEX 01 01:26:35
  TRACK 51 AUDIO
    TITLE "1Q_t_0488-0500_51"
    INDEX 01 01:26:51
  TRACK 52 AUDIO
    TITLE "1Q_t_0488-0500_52"
    INDEX 01 01:29:00
  TRACK 53 AUDIO
    TITLE "1Q_t_0488-0500_53"
    INDEX 01 01:29:16
  TRACK 54 AUDIO
    TITLE "1Q_t_0488-0500_54"
    INDEX 01 01:33:61
  TRACK 55 AUDIO
    TITLE "1Q_t_0488-0500_55"
    INDEX 01 01:34:39
  TRACK 56 AUDIO
    TITLE "1Q_t_0488-0500_56"
    INDEX 01 01:35:50
  TRACK 57 AUDIO
    TITLE "1Q_t_0488-0500_57"
    INDEX 01 01:35:64
  TRACK 58 AUDIO
    TITLE "1Q_t_0488-0500_58"
    INDEX 01 01:36:73
  TRACK 59 AUDIO
    TITLE "1Q_t_0488-0500_59"
    INDEX 01 01:37:12
  TRACK 60 AUDIO
    TITLE "1Q_t_0488-0500_60"
    INDEX 01 01:42:46
  TRACK 61 AUDIO
    TITLE "1Q_t_0488-0500_61"
    INDEX 01 01:43:26
  TRACK 62 AUDIO
    TITLE "1Q_t_0488-0500_62"
    INDEX 01 01:44:27
  TRACK 63 AUDIO
    TITLE "1Q_t_0488-0500_63"
    INDEX 01 01:45:05
  TRACK 64 AUDIO
    TITLE "1Q_t_0488-0500_64"
    INDEX 01 01:46:05
  TRACK 65 AUDIO
    TITLE "1Q_t_0488-0500_65"
    INDEX 01 01:46:22
  TRACK 66 AUDIO
    TITLE "1Q_t_0488-0500_66"
    INDEX 01 01:47:22
  TRACK 67 AUDIO
    TITLE "1Q_t_0488-0500_67"
    INDEX 01 01:47:36
  TRACK 68 AUDIO
    TITLE "1Q_t_0488-0500_68"
    INDEX 01 01:51:61
  TRACK 69 AUDIO
    TITLE "1Q_t_0488-0500_69"
    INDEX 01 01:52:39
  TRACK 70 AUDIO
    TITLE "1Q_t_0488-0500_70"
    INDEX 01 01:53:71
  TRACK 71 AUDIO
    TITLE "1Q_t_0488-0500_71"
    INDEX 01 01:54:12
  TRACK 72 AUDIO
    TITLE "1Q_t_0488-0500_72"
    INDEX 01 01:55:45
  TRACK 73 AUDIO
    TITLE "1Q_t_0488-0500_73"
    INDEX 01 01:55:61
  TRACK 74 AUDIO
    TITLE "1Q_t_0488-0500_74"
    INDEX 01 02:02:10
  TRACK 75 AUDIO
    TITLE "1Q_t_0488-0500_75"
    INDEX 01 02:02:63
  TRACK 76 AUDIO
    TITLE "1Q_t_0488-0500_76"
    INDEX 01 02:04:09
  TRACK 77 AUDIO
    TITLE "1Q_t_0488-0500_77"
    INDEX 01 02:04:26
  TRACK 78 AUDIO
    TITLE "1Q_t_0488-0500_78"
    INDEX 01 02:06:51
  TRACK 79 AUDIO
    TITLE "1Q_t_0488-0500_79"
    INDEX 01 02:06:68
  TRACK 80 AUDIO
    TITLE "1Q_t_0488-0500_80"
    INDEX 01 02:12:12
